<svg width="24" height="24" viewBox="0 0 24 24" fill="none" xmlns="http://www.w3.org/2000/svg">
<path d="M18.212 17.5625C19.7308 17.5625 20.962 18.7938 20.962 20.3125C20.962 21.8312 19.7308 23.0625 18.212 23.0625C16.6933 23.0625 15.462 21.8312 15.462 20.3125C15.462 18.7938 16.6933 17.5625 18.212 17.5625ZM9.46203 17.5625C10.9808 17.5625 12.212 18.7938 12.212 20.3125C12.212 21.8312 10.9808 23.0625 9.46203 23.0625C7.94328 23.0625 6.71203 21.8312 6.71203 20.3125C6.71203 18.794 7.94353 17.5625 9.46203 17.5625ZM18.212 19.3125C17.9468 19.3126 17.6924 19.418 17.5049 19.6056C17.3174 19.7932 17.2121 20.0476 17.2122 20.3129C17.2122 20.5781 17.3177 20.8325 17.5053 21.02C17.6929 21.2075 17.9473 21.3128 18.2125 21.3127C18.3439 21.3127 18.4739 21.2868 18.5952 21.2365C18.7166 21.1862 18.8268 21.1125 18.9197 21.0196C19.0125 20.9268 19.0861 20.8165 19.1364 20.6951C19.1866 20.5738 19.2124 20.4437 19.2124 20.3124C19.2124 20.181 19.1865 20.051 19.1362 19.9297C19.0859 19.8083 19.0122 19.6981 18.9193 19.6053C18.8264 19.5124 18.7161 19.4388 18.5948 19.3885C18.4734 19.3383 18.3434 19.3125 18.212 19.3125ZM9.46203 19.3125C9.19682 19.3125 8.94246 19.4179 8.75493 19.6054C8.56739 19.7929 8.46203 20.0473 8.46203 20.3125C8.46203 20.5777 8.56739 20.8321 8.75493 21.0196C8.94246 21.2071 9.19682 21.3125 9.46203 21.3125C9.72725 21.3125 9.9816 21.2071 10.1691 21.0196C10.3567 20.8321 10.462 20.5777 10.462 20.3125C10.462 20.0473 10.3567 19.7929 10.1691 19.6054C9.9816 19.4179 9.72725 19.3125 9.46203 19.3125ZM3.47303 0.9375C4.04478 0.9375 4.56703 1.325 4.73753 1.8675L4.75353 1.9225L5.49603 4.71925H22.528C22.7069 4.7172 22.8838 4.75576 23.0456 4.83203C23.2073 4.90831 23.3497 5.0203 23.4619 5.15957C23.5741 5.29884 23.6532 5.46176 23.6933 5.63605C23.7334 5.81034 23.7334 5.99146 23.6933 6.16575L23.6813 6.21575L21.2915 15.2885C21.1458 15.8425 20.637 16.249 20.068 16.2745L20.011 16.2757H7.51503C6.94328 16.2757 6.42078 15.8883 6.25003 15.3457L6.23428 15.291L2.95328 2.93775L0.278283 2.93925L0.277283 0.93925L3.47278 0.9375H3.47303ZM21.4805 6.71925H6.02703L8.03378 14.2758H19.49L21.4805 6.71925Z" fill="black"/>
</svg>
