<svg width="81" height="54" viewBox="0 0 81 54" fill="none" xmlns="http://www.w3.org/2000/svg">
<path d="M73 -3.49691e-07C77.4183 -1.56562e-07 81 3.58172 81 8L81 39.7793C81 43.63 78.2566 46.9344 74.4715 47.6428L41.9715 53.7246C40.999 53.9066 40.001 53.9066 39.0285 53.7246L6.52847 47.6428C2.74339 46.9344 -9.53456e-07 43.63 -7.85132e-07 39.7793L6.03983e-07 8C7.97112e-07 3.58173 3.58172 -3.38406e-06 8 -3.19093e-06L73 -3.49691e-07Z" fill="url(#paint0_linear_20_623)"/>
<path d="M21.2061 21.6261V28.6641C21.2061 29.4321 21.0861 30.1101 20.8461 30.6981C20.6061 31.2861 20.2761 31.7781 19.8561 32.1741C19.4361 32.5701 18.9381 32.8701 18.3621 33.0741C17.7861 33.2781 17.1561 33.3801 16.4721 33.3801C15.7881 33.3801 15.1581 33.2781 14.5821 33.0741C14.0061 32.8701 13.5021 32.5701 13.0701 32.1741C12.6501 31.7781 12.3201 31.2861 12.0801 30.6981C11.8521 30.1101 11.7381 29.4321 11.7381 28.6641V20.0601H14.1861V28.8081C14.1861 29.1321 14.2401 29.4381 14.3481 29.7261C14.4681 30.0021 14.6301 30.2421 14.8341 30.4461C15.0381 30.6501 15.2781 30.8121 15.5541 30.9321C15.8301 31.0521 16.1301 31.1121 16.4541 31.1121C16.7781 31.1121 17.0781 31.0521 17.3541 30.9321C17.6301 30.8121 17.8701 30.6501 18.0741 30.4461C18.2901 30.2421 18.4581 30.0021 18.5781 29.7261C18.6981 29.4381 18.7581 29.1321 18.7581 28.8081V20.0601H20.8821C21.0381 20.0121 21.1521 19.9401 21.2241 19.8441C21.4041 19.6281 21.4701 19.1301 21.4221 18.3501H23.1321C23.1321 19.6821 22.8381 20.6001 22.2501 21.1041C21.9861 21.3321 21.6381 21.5061 21.2061 21.6261ZM27.4232 33.3801C26.7392 33.3801 26.1092 33.2781 25.5332 33.0741C24.9572 32.8701 24.4532 32.5701 24.0212 32.1741C23.6012 31.7781 23.2712 31.2861 23.0312 30.6981C22.8032 30.1101 22.6892 29.4321 22.6892 28.6641V20.0601H25.1372V28.8081C25.1372 29.1321 25.1912 29.4381 25.2992 29.7261C25.4192 30.0021 25.5812 30.2421 25.7852 30.4461C25.9892 30.6501 26.2292 30.8121 26.5052 30.9321C26.7812 31.0521 27.0812 31.1121 27.4052 31.1121C27.7292 31.1121 28.0292 31.0521 28.3052 30.9321C28.5812 30.8121 28.8212 30.6501 29.0252 30.4461C29.2412 30.2421 29.4092 30.0021 29.5292 29.7261C29.6492 29.4381 29.7092 29.1321 29.7092 28.8081V20.0601H32.1572V28.6641C32.1572 29.4321 32.0372 30.1101 31.7972 30.6981C31.5572 31.2861 31.2272 31.7781 30.8072 32.1741C30.3872 32.5701 29.8892 32.8701 29.3132 33.0741C28.7372 33.2781 28.1072 33.3801 27.4232 33.3801ZM37.6745 25.5681H38.9165V20.0601H42.4985C43.6025 20.0601 44.5865 20.2281 45.4505 20.5641C46.3145 20.9001 47.0405 21.3621 47.6285 21.9501C48.2285 22.5381 48.6785 23.2341 48.9785 24.0381C49.2905 24.8301 49.4465 25.6941 49.4465 26.6301C49.4465 27.5661 49.2785 28.4361 48.9425 29.2401C48.6065 30.0441 48.1325 30.7401 47.5205 31.3281C46.9205 31.9041 46.2005 32.3601 45.3605 32.6961C44.5205 33.0321 43.6025 33.2001 42.6065 33.2001H38.9165V27.6381H37.6745V25.5681ZM41.3645 22.3281V25.5681H44.3345V27.6381H41.3645V30.9321H42.3185C43.0385 30.9321 43.6865 30.8241 44.2625 30.6081C44.8385 30.3921 45.3245 30.0921 45.7205 29.7081C46.1285 29.3121 46.4405 28.8561 46.6565 28.3401C46.8845 27.8121 46.9985 27.2421 46.9985 26.6301C46.9985 25.9941 46.9025 25.4181 46.7105 24.9021C46.5185 24.3741 46.2245 23.9181 45.8285 23.5341C45.4325 23.1501 44.9345 22.8561 44.3345 22.6521C43.7345 22.4361 43.0265 22.3281 42.2105 22.3281H41.3645ZM53.9715 20.0601H56.4375L61.1175 33.2001H58.5615L57.7515 30.8601H52.6575L51.8475 33.2001H49.2915L53.9715 20.0601ZM52.1355 19.1601C52.1355 18.4281 52.2975 17.8401 52.6215 17.3961C52.9575 16.9521 53.4195 16.7301 54.0075 16.7301C54.3075 16.7301 54.5655 16.7781 54.7815 16.8741C54.9975 16.9581 55.2015 17.0541 55.3935 17.1621C55.5615 17.2821 55.7175 17.3901 55.8615 17.4861C56.0175 17.5701 56.1735 17.6121 56.3295 17.6121C56.6655 17.6121 56.8335 17.3421 56.8335 16.8021H58.2375C58.2375 17.5461 58.0815 18.1401 57.7695 18.5841C57.4575 19.0161 56.9835 19.2321 56.3475 19.2321C55.9995 19.2321 55.6995 19.1721 55.4475 19.0521C55.2075 18.9201 54.9855 18.7941 54.7815 18.6741C54.6495 18.5901 54.5175 18.5181 54.3855 18.4581C54.2655 18.3981 54.1395 18.3681 54.0075 18.3681C53.6955 18.3681 53.5395 18.6321 53.5395 19.1601H52.1355ZM53.4855 28.5201H56.9415L55.2135 23.5341L53.4855 28.5201ZM62.225 20.0601H64.673V33.2001H62.225V20.0601Z" fill="white"/>
<defs>
<linearGradient id="paint0_linear_20_623" x1="81" y1="-1.61194" x2="79.158" y2="57.2817" gradientUnits="userSpaceOnUse">
<stop stop-color="#8C324C"/>
<stop offset="0.520833" stop-color="#CA6584"/>
<stop offset="1" stop-color="#8C324C"/>
</linearGradient>
</defs>
</svg>
