<svg width="115" height="39" viewBox="0 0 115 39" fill="none" xmlns="http://www.w3.org/2000/svg">
<path d="M0.5 8.5C0.5 4.08172 4.08172 0.5 8.5 0.5H94.7781C97.1379 0.5 99.3774 1.54186 100.897 3.34691L110.161 14.3469C112.668 17.3247 112.668 21.6753 110.161 24.6531L100.897 35.6531C99.3774 37.4581 97.1379 38.5 94.7781 38.5H8.5C4.08172 38.5 0.5 34.9183 0.5 30.5V8.5Z" fill="url(#paint0_linear_26_1669)"/>
<path d="M38.706 14.426V21.464C38.706 22.232 38.586 22.91 38.346 23.498C38.106 24.086 37.776 24.578 37.356 24.974C36.936 25.37 36.438 25.67 35.862 25.874C35.286 26.078 34.656 26.18 33.972 26.18C33.288 26.18 32.658 26.078 32.082 25.874C31.506 25.67 31.002 25.37 30.57 24.974C30.15 24.578 29.82 24.086 29.58 23.498C29.352 22.91 29.238 22.232 29.238 21.464V12.86H31.686V21.608C31.686 21.932 31.74 22.238 31.848 22.526C31.968 22.802 32.13 23.042 32.334 23.246C32.538 23.45 32.778 23.612 33.054 23.732C33.33 23.852 33.63 23.912 33.954 23.912C34.278 23.912 34.578 23.852 34.854 23.732C35.13 23.612 35.37 23.45 35.574 23.246C35.79 23.042 35.958 22.802 36.078 22.526C36.198 22.238 36.258 21.932 36.258 21.608V12.86H38.382C38.538 12.812 38.652 12.74 38.724 12.644C38.904 12.428 38.97 11.93 38.922 11.15H40.632C40.632 12.482 40.338 13.4 39.75 13.904C39.486 14.132 39.138 14.306 38.706 14.426ZM44.9232 26.18C44.2392 26.18 43.6092 26.078 43.0332 25.874C42.4572 25.67 41.9532 25.37 41.5212 24.974C41.1012 24.578 40.7712 24.086 40.5312 23.498C40.3032 22.91 40.1892 22.232 40.1892 21.464V12.86H42.6372V21.608C42.6372 21.932 42.6912 22.238 42.7992 22.526C42.9192 22.802 43.0812 23.042 43.2852 23.246C43.4892 23.45 43.7292 23.612 44.0052 23.732C44.2812 23.852 44.5812 23.912 44.9052 23.912C45.2292 23.912 45.5292 23.852 45.8052 23.732C46.0812 23.612 46.3212 23.45 46.5252 23.246C46.7412 23.042 46.9092 22.802 47.0292 22.526C47.1492 22.238 47.2092 21.932 47.2092 21.608V12.86H49.6572V21.464C49.6572 22.232 49.5372 22.91 49.2972 23.498C49.0572 24.086 48.7272 24.578 48.3072 24.974C47.8872 25.37 47.3892 25.67 46.8132 25.874C46.2372 26.078 45.6072 26.18 44.9232 26.18ZM55.1745 18.368H56.4165V12.86H59.9985C61.1025 12.86 62.0865 13.028 62.9505 13.364C63.8145 13.7 64.5405 14.162 65.1285 14.75C65.7285 15.338 66.1785 16.034 66.4785 16.838C66.7905 17.63 66.9465 18.494 66.9465 19.43C66.9465 20.366 66.7785 21.236 66.4425 22.04C66.1065 22.844 65.6325 23.54 65.0205 24.128C64.4205 24.704 63.7005 25.16 62.8605 25.496C62.0205 25.832 61.1025 26 60.1065 26H56.4165V20.438H55.1745V18.368ZM58.8645 15.128V18.368H61.8345V20.438H58.8645V23.732H59.8185C60.5385 23.732 61.1865 23.624 61.7625 23.408C62.3385 23.192 62.8245 22.892 63.2205 22.508C63.6285 22.112 63.9405 21.656 64.1565 21.14C64.3845 20.612 64.4985 20.042 64.4985 19.43C64.4985 18.794 64.4025 18.218 64.2105 17.702C64.0185 17.174 63.7245 16.718 63.3285 16.334C62.9325 15.95 62.4345 15.656 61.8345 15.452C61.2345 15.236 60.5265 15.128 59.7105 15.128H58.8645ZM71.4715 12.86H73.9375L78.6175 26H76.0615L75.2515 23.66H70.1575L69.3475 26H66.7915L71.4715 12.86ZM69.6355 11.96C69.6355 11.228 69.7975 10.64 70.1215 10.196C70.4575 9.752 70.9195 9.53 71.5075 9.53C71.8075 9.53 72.0655 9.578 72.2815 9.674C72.4975 9.758 72.7015 9.854 72.8935 9.962C73.0615 10.082 73.2175 10.19 73.3615 10.286C73.5175 10.37 73.6735 10.412 73.8295 10.412C74.1655 10.412 74.3335 10.142 74.3335 9.602H75.7375C75.7375 10.346 75.5815 10.94 75.2695 11.384C74.9575 11.816 74.4835 12.032 73.8475 12.032C73.4995 12.032 73.1995 11.972 72.9475 11.852C72.7075 11.72 72.4855 11.594 72.2815 11.474C72.1495 11.39 72.0175 11.318 71.8855 11.258C71.7655 11.198 71.6395 11.168 71.5075 11.168C71.1955 11.168 71.0395 11.432 71.0395 11.96H69.6355ZM70.9855 21.32H74.4415L72.7135 16.334L70.9855 21.32ZM79.7249 12.86H82.1729V26H79.7249V12.86Z" fill="white"/>
<defs>
<linearGradient id="paint0_linear_26_1669" x1="-2.90299" y1="0.500006" x2="119.132" y2="17.6756" gradientUnits="userSpaceOnUse">
<stop stop-color="#8C324C"/>
<stop offset="0.520833" stop-color="#CA6584"/>
<stop offset="1" stop-color="#8C324C"/>
</linearGradient>
</defs>
</svg>
