<svg width="443" height="44" viewBox="0 0 443 44" fill="none" xmlns="http://www.w3.org/2000/svg">
<rect x="232" y="6" width="1" height="32" fill="#E0E0E0"/>
<path d="M162.994 19.3748C162.784 18.4213 162.343 17.5342 161.708 16.7925C160.815 15.7994 159.635 15.1092 158.331 14.8178C156.412 14.4143 154.45 14.2436 152.489 14.3096C149.621 14.3096 147.775 14.6426 146.46 15.145C145.833 15.4032 145.26 15.7779 144.772 16.2492V15.2852H141.056V34.7283H144.789V22.3777C144.789 19.1586 148.084 17.885 151.368 17.885H153.015C156.299 17.885 159.623 19.1586 159.623 22.3777V34.7283H163.304V24.1246C163.366 22.5353 163.266 20.9438 163.005 19.3748H162.994Z" fill="#EC1C24"/>
<path d="M100.236 14.2513H103.952C103.929 12.6619 104.037 11.0734 104.273 9.50152C104.424 8.68752 104.815 7.93706 105.395 7.34572C106.121 6.52494 107.065 5.92727 108.118 5.62227C109.934 5.21925 111.79 5.02326 113.65 5.03804H117.155L113.796 8.30969H112.329C107.393 8.30969 107.738 11.4704 107.738 14.2688H116.425L112.92 17.8443H107.661V34.7109H103.91V17.8267H100.236V14.2513Z" fill="#EC1C24"/>
<path d="M96.4972 7.85983V11.669H100.213V7.85983H96.4972Z" fill="#EC1C24"/>
<path d="M67.8114 24.5336C67.8706 26.4434 67.5978 28.349 67.0051 30.1655C66.4618 31.6436 64.6157 34.9854 55.642 34.9854C46.6682 34.9854 44.8221 31.6436 44.2787 30.1655C43.2037 26.4879 43.2037 22.5793 44.2787 18.9017C44.8221 17.4177 46.6682 14.0818 55.642 14.0818C64.6157 14.0818 66.4618 17.4177 67.0051 18.9017C67.5987 20.718 67.8715 22.6237 67.8114 24.5336ZM63.1376 20.0642C62.9738 19.6579 62.7208 19.2936 62.3972 18.9983C62.0736 18.703 61.6876 18.4842 61.268 18.3583C60.3041 18.0545 58.6157 17.8734 55.6653 17.8325C52.715 17.7916 51.0266 18.0545 50.0625 18.3583C49.643 18.4842 49.2571 18.703 48.9335 18.9983C48.6099 19.2936 48.3568 19.6579 48.193 20.0642C47.414 22.9909 47.414 26.0705 48.193 28.9971C48.3568 29.4034 48.6099 29.7677 48.9335 30.063C49.2571 30.3583 49.643 30.5771 50.0625 30.703C51.0266 31.0126 52.715 31.1879 55.6653 31.2347C58.6157 31.1879 60.3041 31.0126 61.268 30.703C61.6876 30.5771 62.0736 30.3583 62.3972 30.063C62.7208 29.7677 62.9738 29.4034 63.1376 28.9971C63.9166 26.0705 63.9166 22.9909 63.1376 20.0642Z" fill="#0060AE"/>
<path d="M138.316 24.5336C138.378 26.4436 138.106 28.3497 137.51 30.1655C136.972 31.6436 135.121 34.9854 126.153 34.9854C117.185 34.9854 115.326 31.6436 114.789 30.1655C113.714 26.4879 113.714 22.5793 114.789 18.9017C115.326 17.4177 117.179 14.0818 126.153 14.0818C135.126 14.0818 136.972 17.4177 137.51 18.9017C138.106 20.7172 138.379 22.6235 138.316 24.5336ZM133.642 20.0642C133.478 19.6579 133.226 19.2936 132.902 18.9983C132.578 18.703 132.192 18.4842 131.773 18.3583C130.815 18.0545 129.126 17.8734 126.176 17.8325C123.225 17.7916 121.502 18.0545 120.573 18.3583C120.153 18.4842 119.767 18.703 119.444 18.9983C119.12 19.2936 118.867 19.6579 118.703 20.0642C117.917 22.9899 117.917 26.0714 118.703 28.9971C118.867 29.4034 119.12 29.7677 119.444 30.063C119.767 30.3583 120.153 30.5771 120.573 30.703C121.531 31.0126 123.22 31.1879 126.176 31.2347C129.097 31.1879 130.815 31.0126 131.773 30.703C132.192 30.5771 132.578 30.3583 132.902 30.063C133.226 29.7677 133.478 29.4034 133.642 28.9971C134.429 26.0714 134.429 22.9899 133.642 20.0642Z" fill="#EC1C24"/>
<path d="M40.4987 19.369C40.2885 18.4154 39.8425 17.5295 39.2017 16.7926C38.2942 15.8037 37.1055 15.1165 35.7957 14.8238C33.876 14.4178 31.9144 14.2452 29.9534 14.3097C27.0323 14.3097 25.0926 14.5434 23.7664 15.04C22.6669 15.4418 21.7277 16.1902 21.0906 17.1724C20.3577 16.1519 19.321 15.3891 18.1286 14.9932C16.7556 14.5317 14.2026 14.3038 10.9777 14.3038C8.55893 14.3038 6.88805 14.4732 5.90071 14.8296C5.08371 15.1601 4.34233 15.6529 3.72153 16.2785V15.2853H0V34.7225H3.70985V22.3486C3.70985 19.1236 6.98737 17.85 10.2999 17.85H11.9591C15.2659 17.85 18.5785 19.1236 18.5785 22.3486V34.6933H22.2883V22.3486C22.2883 19.1236 25.525 17.85 28.8375 17.85H30.4967C33.8093 17.85 37.1277 19.1236 37.1277 22.3486V34.6933H40.8317V24.0896C40.8913 22.5004 40.7915 20.9092 40.5337 19.3398L40.4987 19.369Z" fill="#0060AE"/>
<path d="M188.051 25.9533H189.95C189.979 25.4976 189.991 25.0243 189.991 24.5336C190.054 22.6235 189.781 20.7172 189.185 18.9017C188.647 17.4177 186.796 14.0818 177.827 14.0818C168.859 14.0818 167.001 17.4177 166.464 18.9017C165.389 22.5793 165.389 26.4879 166.464 30.1655C167.001 31.6436 168.853 34.9854 177.827 34.9854C186.801 34.9854 188.647 31.6436 189.185 30.1655C189.231 30.037 189.279 29.8968 189.325 29.7624H184.844C184.468 30.2022 183.976 30.5281 183.425 30.703C182.466 31.0126 180.777 31.1879 177.827 31.2347C174.871 31.1879 173.183 31.0126 172.224 30.703C171.805 30.5771 171.419 30.3583 171.095 30.063C170.772 29.7677 170.519 29.4034 170.355 28.9971C170.027 28.0204 169.843 27.0007 169.812 25.9708H188.051V25.9533ZM172.224 18.3583C173.183 18.0545 174.871 17.8734 177.827 17.8325C180.783 17.7916 182.466 18.0545 183.425 18.3583C183.844 18.4842 184.23 18.703 184.554 18.9983C184.877 19.2936 185.13 19.6579 185.294 20.0642C185.564 20.8349 185.729 21.6387 185.785 22.4537H169.864C169.92 21.6387 170.085 20.8349 170.355 20.0642C170.519 19.6579 170.772 19.2936 171.095 18.9983C171.419 18.703 171.805 18.4842 172.224 18.3583Z" fill="#EC1C24"/>
<path d="M96.4972 14.2511V34.6932H100.213V14.2511H96.4972Z" fill="#0060AE"/>
<path d="M93.0738 18.9016C92.5298 17.4177 90.6836 14.0818 81.7104 14.0818C78.275 14.0818 75.8676 14.5725 74.2204 15.2502V5.01459H70.5105V34.7459H74.2204V33.8053C75.8915 34.4947 78.275 34.9737 81.7104 34.9737C90.6836 34.9737 92.5298 31.632 93.0738 30.1539C94.1483 26.4762 94.1483 22.5677 93.0738 18.8899V18.9016ZM89.1828 28.9971C89.0187 29.4034 88.7655 29.7678 88.4418 30.0631C88.1181 30.3584 87.7323 30.5771 87.3127 30.703C86.3491 31.0127 84.6602 31.1879 81.7104 31.2347C78.7597 31.1879 77.6209 31.0127 76.6393 30.703C76.2182 30.5778 75.8316 30.3595 75.5064 30.0641C75.182 29.7688 74.928 29.4041 74.7637 28.9971C74.4257 27.9847 74.2425 26.927 74.2204 25.8598V23.2132C74.2421 22.1442 74.4252 21.0845 74.7637 20.0701C74.928 19.6631 75.182 19.2985 75.5064 19.0031C75.8316 18.7077 76.2182 18.4894 76.6393 18.3642C77.5969 18.0604 78.7597 17.8793 81.7104 17.8383C84.6602 17.7974 86.3491 18.0604 87.3127 18.3642C87.7323 18.4901 88.1181 18.7089 88.4418 19.0041C88.7655 19.2994 89.0187 19.6638 89.1828 20.0701C89.9613 22.9968 89.9613 26.0763 89.1828 29.0029V28.9971Z" fill="#0060AE"/>
<path d="M285.588 26.378C285.801 26.8771 285.731 27.5179 285.624 27.9098C285.445 28.5863 284.983 29.2985 283.63 29.2985C282.35 29.2985 281.567 28.5505 281.567 27.4464V25.4526H276.05V27.0201C276.05 31.6112 279.644 33 283.524 33C287.226 33 290.286 31.7185 290.784 28.3016C291.033 26.521 290.856 25.3825 290.748 24.9191C289.896 20.6112 282.1 19.3297 281.495 16.9441C281.389 16.5179 281.424 16.0916 281.459 15.8771C281.602 15.2364 282.064 14.4884 283.345 14.4884C284.555 14.4884 285.268 15.2364 285.268 16.3391V17.622H290.394V16.1617C290.394 11.6765 286.372 11 283.453 11C279.787 11 276.832 12.21 276.263 15.5568C276.121 16.4821 276.084 17.3016 276.298 18.3342C277.224 22.4977 284.521 23.7091 285.588 26.378V26.378ZM352.322 26.3436C352.535 26.8414 352.464 27.4821 352.358 27.8383C352.179 28.5148 351.717 29.1912 350.364 29.1912C349.083 29.1912 348.336 28.4432 348.336 27.3391V25.3825H342.891V26.9486C342.891 31.4696 346.45 32.857 350.293 32.857C353.96 32.857 356.985 31.6112 357.484 28.1944C357.731 26.4495 357.553 25.2752 357.447 24.8476C356.593 20.5755 348.87 19.3298 348.3 16.9455C348.193 16.5179 348.229 16.0902 348.265 15.8771C348.408 15.2364 348.834 14.5241 350.115 14.5241C351.29 14.5241 352.002 15.2721 352.002 16.3749V17.622H357.091V16.1975C357.091 11.7837 353.105 11.0715 350.223 11.0715C346.627 11.0715 343.673 12.2815 343.104 15.5925C342.961 16.4821 342.925 17.3016 343.14 18.3329C344.065 22.4991 351.29 23.7091 352.322 26.3436V26.3436ZM394.925 28.1586L394.641 11.6407H399.729V31.9316H392.398L387.238 14.8802L387.522 31.9316H382.468V11.6407H390.085L394.925 28.1586V28.1586ZM302.635 13.1354L299.789 32.1461H294.237L298.01 11.6407H307.156L310.929 32.1461H305.413L302.635 13.1354V13.1354ZM332.605 13.1354L329.045 32.1475H323.849L320.326 13.1354L320.183 32.1461H315.058L315.485 11.6407H323.849L326.447 27.6595L329.046 11.6407H337.409L337.872 32.1461H332.746L332.605 13.1354V13.1354ZM369.548 29.0854C370.971 29.0854 371.435 28.0871 371.506 27.5894C371.542 27.3749 371.542 27.0545 371.542 26.8056V11.605H376.738V26.345C376.738 26.7355 376.702 27.4835 376.702 27.6966C376.346 31.5425 373.32 32.7883 369.548 32.7883C365.775 32.7883 362.75 31.5425 362.394 27.6966C362.358 27.4835 362.323 26.7355 362.358 26.345V11.605H367.556V26.8056C367.556 27.0545 367.556 27.3749 367.59 27.5894C367.697 28.1229 368.125 29.084 369.548 29.084V29.0854ZM412.4 28.8709C413.895 28.8709 414.394 27.9084 414.5 27.3749C414.535 27.1274 414.571 26.8414 414.535 26.5911V23.6019H412.436V20.6112H419.696V26.1291C419.696 26.521 419.696 26.8056 419.626 27.4821C419.27 31.2207 416.03 32.5366 412.4 32.5366C408.77 32.5366 405.531 31.2207 405.176 27.4821C405.104 26.8056 405.104 26.521 405.104 26.1291V17.479C405.104 17.1229 405.14 16.4821 405.176 16.126C405.638 12.2815 408.734 11.0715 412.4 11.0715C416.03 11.0715 419.234 12.2815 419.59 16.126C419.661 16.7667 419.626 17.479 419.626 17.479V18.1555H414.428V17.0156C414.428 17.0156 414.428 16.5179 414.358 16.2319C414.251 15.7699 413.86 14.7373 412.294 14.7373C410.798 14.7373 410.372 15.7341 410.265 16.2332C410.193 16.5179 410.193 16.874 410.193 17.1944V26.5925C410.193 26.8414 410.193 27.126 410.229 27.3762C410.372 27.9455 410.905 28.8709 412.401 28.8709H412.4Z" fill="#242424"/>
</svg>
