<svg width="190" height="30" viewBox="0 0 190 30" fill="none" xmlns="http://www.w3.org/2000/svg">
<path d="M162.994 14.3748C162.784 13.4213 162.343 12.5342 161.708 11.7925C160.815 10.7994 159.635 10.1092 158.331 9.81782C156.412 9.41427 154.45 9.24358 152.489 9.30959C149.621 9.30959 147.775 9.64257 146.46 10.145C145.833 10.4032 145.26 10.7779 144.772 11.2492V10.2852H141.056V29.7283H144.789V17.3777C144.789 14.1586 148.084 12.885 151.368 12.885H153.015C156.299 12.885 159.623 14.1586 159.623 17.3777V29.7283H163.304V19.1246C163.366 17.5353 163.266 15.9438 163.005 14.3748H162.994Z" fill="#EC1C24"/>
<path d="M100.236 9.25128H103.952C103.929 7.66193 104.037 6.0734 104.273 4.50152C104.424 3.68752 104.815 2.93706 105.395 2.34572C106.121 1.52494 107.065 0.927273 108.118 0.622266C109.934 0.219254 111.79 0.0232631 113.65 0.038039H117.155L113.796 3.30969H112.329C107.393 3.30969 107.738 6.47037 107.738 9.26882H116.425L112.92 12.8443H107.661V29.7109H103.91V12.8267H100.236V9.25128Z" fill="#EC1C24"/>
<path d="M96.4972 2.85983V6.669H100.213V2.85983H96.4972Z" fill="#EC1C24"/>
<path d="M67.8114 19.5336C67.8706 21.4434 67.5978 23.349 67.0051 25.1655C66.4618 26.6436 64.6157 29.9854 55.642 29.9854C46.6682 29.9854 44.8221 26.6436 44.2787 25.1655C43.2037 21.4879 43.2037 17.5793 44.2787 13.9017C44.8221 12.4177 46.6682 9.08176 55.642 9.08176C64.6157 9.08176 66.4618 12.4177 67.0051 13.9017C67.5987 15.718 67.8715 17.6237 67.8114 19.5336ZM63.1376 15.0642C62.9738 14.6579 62.7208 14.2936 62.3972 13.9983C62.0736 13.703 61.6876 13.4842 61.268 13.3583C60.3041 13.0545 58.6157 12.8734 55.6653 12.8325C52.715 12.7916 51.0266 13.0545 50.0625 13.3583C49.643 13.4842 49.2571 13.703 48.9335 13.9983C48.6099 14.2936 48.3568 14.6579 48.193 15.0642C47.414 17.9909 47.414 21.0705 48.193 23.9971C48.3568 24.4034 48.6099 24.7677 48.9335 25.063C49.2571 25.3583 49.643 25.5771 50.0625 25.703C51.0266 26.0126 52.715 26.1879 55.6653 26.2347C58.6157 26.1879 60.3041 26.0126 61.268 25.703C61.6876 25.5771 62.0736 25.3583 62.3972 25.063C62.7208 24.7677 62.9738 24.4034 63.1376 23.9971C63.9166 21.0705 63.9166 17.9909 63.1376 15.0642Z" fill="#0060AE"/>
<path d="M138.316 19.5336C138.378 21.4436 138.106 23.3497 137.51 25.1655C136.972 26.6436 135.121 29.9854 126.153 29.9854C117.185 29.9854 115.326 26.6436 114.789 25.1655C113.714 21.4879 113.714 17.5793 114.789 13.9017C115.326 12.4177 117.179 9.08176 126.153 9.08176C135.126 9.08176 136.972 12.4177 137.51 13.9017C138.106 15.7172 138.379 17.6235 138.316 19.5336ZM133.642 15.0642C133.478 14.6579 133.226 14.2936 132.902 13.9983C132.578 13.703 132.192 13.4842 131.773 13.3583C130.815 13.0545 129.126 12.8734 126.176 12.8325C123.225 12.7916 121.502 13.0545 120.573 13.3583C120.153 13.4842 119.767 13.703 119.444 13.9983C119.12 14.2936 118.867 14.6579 118.703 15.0642C117.917 17.9899 117.917 21.0714 118.703 23.9971C118.867 24.4034 119.12 24.7677 119.444 25.063C119.767 25.3583 120.153 25.5771 120.573 25.703C121.531 26.0126 123.22 26.1879 126.176 26.2347C129.097 26.1879 130.815 26.0126 131.773 25.703C132.192 25.5771 132.578 25.3583 132.902 25.063C133.226 24.7677 133.478 24.4034 133.642 23.9971C134.429 21.0714 134.429 17.9899 133.642 15.0642Z" fill="#EC1C24"/>
<path d="M40.4987 14.369C40.2885 13.4154 39.8425 12.5295 39.2017 11.7926C38.2942 10.8037 37.1055 10.1165 35.7957 9.8238C33.876 9.41785 31.9144 9.24522 29.9534 9.30965C27.0323 9.30965 25.0926 9.54335 23.7664 10.04C22.6669 10.4418 21.7277 11.1902 21.0906 12.1724C20.3577 11.1519 19.321 10.3891 18.1286 9.99321C16.7556 9.53166 14.2026 9.30381 10.9777 9.30381C8.55893 9.30381 6.88805 9.47322 5.90071 9.82957C5.08371 10.1601 4.34233 10.6529 3.72153 11.2785V10.2853H0V29.7225H3.70985V17.3486C3.70985 14.1236 6.98737 12.85 10.2999 12.85H11.9591C15.2659 12.85 18.5785 14.1236 18.5785 17.3486V29.6933H22.2883V17.3486C22.2883 14.1236 25.525 12.85 28.8375 12.85H30.4967C33.8093 12.85 37.1277 14.1236 37.1277 17.3486V29.6933H40.8317V19.0896C40.8913 17.5004 40.7915 15.9092 40.5337 14.3398L40.4987 14.369Z" fill="#0060AE"/>
<path d="M188.051 20.9533H189.95C189.979 20.4976 189.991 20.0243 189.991 19.5336C190.054 17.6235 189.781 15.7172 189.185 13.9017C188.647 12.4177 186.796 9.08176 177.827 9.08176C168.859 9.08176 167.001 12.4177 166.464 13.9017C165.389 17.5793 165.389 21.4879 166.464 25.1655C167.001 26.6436 168.853 29.9854 177.827 29.9854C186.801 29.9854 188.647 26.6436 189.185 25.1655C189.231 25.037 189.279 24.8968 189.325 24.7624H184.844C184.468 25.2022 183.976 25.5281 183.425 25.703C182.466 26.0126 180.777 26.1879 177.827 26.2347C174.871 26.1879 173.183 26.0126 172.224 25.703C171.805 25.5771 171.419 25.3583 171.095 25.063C170.772 24.7677 170.519 24.4034 170.355 23.9971C170.027 23.0204 169.843 22.0007 169.812 20.9708H188.051V20.9533ZM172.224 13.3583C173.183 13.0545 174.871 12.8734 177.827 12.8325C180.783 12.7916 182.466 13.0545 183.425 13.3583C183.844 13.4842 184.23 13.703 184.554 13.9983C184.877 14.2936 185.13 14.6579 185.294 15.0642C185.564 15.8349 185.729 16.6387 185.785 17.4537H169.864C169.92 16.6387 170.085 15.8349 170.355 15.0642C170.519 14.6579 170.772 14.2936 171.095 13.9983C171.419 13.703 171.805 13.4842 172.224 13.3583Z" fill="#EC1C24"/>
<path d="M96.4972 9.25113V29.6932H100.213V9.25113H96.4972Z" fill="#0060AE"/>
<path d="M93.0738 13.9016C92.5298 12.4177 90.6836 9.08181 81.7104 9.08181C78.275 9.08181 75.8676 9.5725 74.2204 10.2502V0.0145874H70.5105V29.7459H74.2204V28.8053C75.8915 29.4947 78.275 29.9737 81.7104 29.9737C90.6836 29.9737 92.5298 26.632 93.0738 25.1539C94.1483 21.4762 94.1483 17.5677 93.0738 13.8899V13.9016ZM89.1828 23.9971C89.0187 24.4034 88.7655 24.7678 88.4418 25.0631C88.1181 25.3584 87.7323 25.5771 87.3127 25.703C86.3491 26.0127 84.6602 26.1879 81.7104 26.2347C78.7597 26.1879 77.6209 26.0127 76.6393 25.703C76.2182 25.5778 75.8316 25.3595 75.5064 25.0641C75.182 24.7688 74.928 24.4041 74.7637 23.9971C74.4257 22.9847 74.2425 21.927 74.2204 20.8598V18.2132C74.2421 17.1442 74.4252 16.0845 74.7637 15.0701C74.928 14.6631 75.182 14.2985 75.5064 14.0031C75.8316 13.7077 76.2182 13.4894 76.6393 13.3642C77.5969 13.0604 78.7597 12.8793 81.7104 12.8383C84.6602 12.7974 86.3491 13.0604 87.3127 13.3642C87.7323 13.4901 88.1181 13.7089 88.4418 14.0041C88.7655 14.2994 89.0187 14.6638 89.1828 15.0701C89.9613 17.9968 89.9613 21.0763 89.1828 24.0029V23.9971Z" fill="#0060AE"/>
</svg>
