<svg width="32" height="32" viewBox="0 0 32 32" fill="none" xmlns="http://www.w3.org/2000/svg">
<path d="M14.0561 10.0104L13.5561 9.14434L12.69 9.64434L13.19 10.5104L14.0561 10.0104ZM14.0573 10.0124L14.532 10.8926L15.438 10.4039L14.9233 9.51244L14.0573 10.0124ZM20.3718 20.9496L21.2378 20.4496L20.7231 19.5581L19.8469 20.0984L20.3718 20.9496ZM20.373 20.9517L19.507 21.4517L20.007 22.3177L20.873 21.8177L20.373 20.9517ZM22.5163 27.0084L22.02 26.1402L22.0179 26.1414L22.5163 27.0084ZM9.88998 5.12149L10.3907 5.98709L10.3908 5.98703L9.88998 5.12149ZM9.89642 5.11776L9.39642 4.25173L9.39559 4.25221L9.89642 5.11776ZM14.5561 10.8763C15.0245 10.6059 16.0088 10.0591 16.5901 9.10476C16.8975 8.60012 17.091 7.98904 17.0644 7.2746C17.0382 6.57121 16.8012 5.82808 16.3467 5.04079L14.6146 6.04079C14.9497 6.62115 15.0546 7.04828 15.0658 7.34904C15.0766 7.63876 15.003 7.86571 14.8821 8.06428C14.6067 8.51638 14.089 8.83662 13.5561 9.14429L14.5561 10.8763ZM14.5561 10.8764L14.5561 10.8763L13.5561 9.14429L13.5561 9.14434L14.5561 10.8764ZM14.9233 9.51244L14.9221 9.51036L13.19 10.5104L13.1912 10.5124L14.9233 9.51244ZM14.4131 10.9589C14.4525 10.9362 14.4922 10.914 14.532 10.8926L13.5825 9.1323C13.5257 9.16293 13.4693 9.19446 13.4131 9.22689L14.4131 10.9589ZM14.0756 17.2933C13.2048 15.785 12.6671 14.5424 12.6465 13.5177C12.6368 13.0377 12.742 12.6141 12.9883 12.2192C13.2403 11.8152 13.6759 11.3846 14.4131 10.9589L13.4131 9.22689C12.4696 9.77159 11.7589 10.411 11.2913 11.1607C10.8181 11.9195 10.6303 12.7331 10.6469 13.5579C10.6788 15.1429 11.47 16.7802 12.3436 18.2933L14.0756 17.2933ZM19.73 20.1682C18.9928 20.5938 18.4021 20.7557 17.9262 20.772C17.4611 20.7878 17.0417 20.6671 16.6308 20.4187C15.7537 19.8885 14.9464 18.8016 14.0756 17.2933L12.3436 18.2933C13.2171 19.8063 14.2394 21.3102 15.5961 22.1303C16.3021 22.557 17.1007 22.8013 17.9944 22.7708C18.8774 22.7407 19.7866 22.4449 20.73 21.9002L19.73 20.1682ZM19.8469 20.0984C19.8085 20.1221 19.7695 20.1454 19.73 20.1682L20.73 21.9002C20.7862 21.8678 20.8418 21.8346 20.8967 21.8008L19.8469 20.0984ZM21.239 20.4517L21.2378 20.4496L19.5058 21.4496L19.507 21.4517L21.239 20.4517ZM20.873 21.8177C20.873 21.8177 20.873 21.8177 20.873 21.8177C20.873 21.8177 20.873 21.8177 20.873 21.8177L20.873 21.8177C20.873 21.8177 20.873 21.8177 20.873 21.8177C20.873 21.8177 20.873 21.8177 20.873 21.8177C20.873 21.8177 20.873 21.8177 20.873 21.8177L20.873 21.8177L20.873 21.8177C20.873 21.8177 20.873 21.8177 20.873 21.8177C20.873 21.8177 20.873 21.8177 20.873 21.8177C20.873 21.8177 20.873 21.8177 20.873 21.8177L20.873 21.8177C20.873 21.8177 20.873 21.8177 20.873 21.8177C20.873 21.8177 20.873 21.8177 20.873 21.8177C20.873 21.8177 20.873 21.8177 20.873 21.8177L20.873 21.8177L20.873 21.8177C20.873 21.8177 20.873 21.8177 20.873 21.8177C20.873 21.8177 20.873 21.8177 20.873 21.8177C20.873 21.8177 20.873 21.8177 20.873 21.8177L20.873 21.8177C20.873 21.8177 20.873 21.8177 20.873 21.8177C20.873 21.8177 20.873 21.8177 20.873 21.8177C20.873 21.8177 20.873 21.8177 20.873 21.8177L20.873 21.8177L20.873 21.8177C20.873 21.8177 20.873 21.8177 20.873 21.8177C20.873 21.8177 20.873 21.8177 20.873 21.8177L20.873 21.8177L20.873 21.8177C20.873 21.8177 20.873 21.8177 20.873 21.8177C20.873 21.8177 20.873 21.8177 20.873 21.8177C20.873 21.8177 20.873 21.8177 20.873 21.8177L20.873 21.8177C20.873 21.8177 20.873 21.8177 20.873 21.8177C20.873 21.8177 20.873 21.8177 20.873 21.8177C20.873 21.8177 20.873 21.8177 20.873 21.8177L20.873 21.8177C20.873 21.8177 20.873 21.8177 20.873 21.8177C20.873 21.8177 20.873 21.8177 20.873 21.8177C20.873 21.8177 20.873 21.8177 20.873 21.8177L20.873 21.8177C20.873 21.8177 20.873 21.8177 20.873 21.8177C20.873 21.8177 20.873 21.8177 20.873 21.8177C20.873 21.8177 20.873 21.8177 20.8731 21.8177L20.8731 21.8177C20.8731 21.8177 20.8731 21.8177 20.8731 21.8177C20.8731 21.8177 20.8731 21.8177 20.8731 21.8177C20.8731 21.8177 20.8731 21.8177 20.8731 21.8177L20.8731 21.8177L20.8731 21.8177C20.8731 21.8177 20.8731 21.8177 20.8731 21.8177C20.8731 21.8177 20.8731 21.8177 20.8731 21.8177L20.8731 21.8177L20.8731 21.8176C20.8731 21.8176 20.8731 21.8176 20.8731 21.8176C20.8731 21.8176 20.8731 21.8176 20.8731 21.8176L20.8731 21.8176L20.8731 21.8176C20.8731 21.8176 20.8731 21.8176 20.8731 21.8176C20.8731 21.8176 20.8731 21.8176 20.8731 21.8176L20.8731 21.8176L20.8731 21.8176C20.8731 21.8176 20.8731 21.8176 20.8731 21.8176C20.8731 21.8176 20.8731 21.8176 20.8731 21.8176L20.8731 21.8176L20.8731 21.8176C20.8731 21.8176 20.8731 21.8176 20.8731 21.8176C20.8731 21.8176 20.8731 21.8176 20.8731 21.8176L20.8731 21.8176L20.8731 21.8176C20.8731 21.8176 20.8731 21.8176 20.8731 21.8176C20.8731 21.8176 20.8731 21.8176 20.8731 21.8176L20.8731 21.8176L20.8731 21.8176C20.8731 21.8176 20.8731 21.8176 20.8731 21.8176C20.8731 21.8176 20.8731 21.8176 20.8731 21.8176L20.8731 21.8176L20.8731 21.8176C20.8731 21.8176 20.8731 21.8176 20.8731 21.8176C20.8731 21.8176 20.8731 21.8176 20.8731 21.8176L20.8731 21.8176L20.8731 21.8176C20.8731 21.8176 20.8731 21.8176 20.8731 21.8176C20.8731 21.8176 20.8731 21.8176 20.8731 21.8176L20.8731 21.8176L20.8731 21.8176C20.8731 21.8176 20.8731 21.8176 20.8731 21.8176C20.8731 21.8176 20.8731 21.8176 20.8731 21.8176C20.8731 21.8176 20.8731 21.8176 20.8731 21.8176L20.8731 21.8176C20.8731 21.8176 20.8731 21.8176 20.8731 21.8176C20.8731 21.8176 20.8731 21.8176 20.8731 21.8176C20.8731 21.8176 20.8731 21.8176 20.8731 21.8176L20.8731 21.8176C20.8731 21.8176 20.8731 21.8176 20.8731 21.8176C20.8731 21.8176 20.8731 21.8176 20.8731 21.8176C20.8731 21.8176 20.8731 21.8176 20.8731 21.8176L20.8731 21.8176C20.8731 21.8176 20.8731 21.8176 20.8731 21.8176C20.8731 21.8176 20.8731 21.8176 20.8731 21.8176C20.8731 21.8176 20.8731 21.8176 20.8731 21.8176L20.8731 21.8176C20.8731 21.8176 20.8731 21.8176 20.8731 21.8176C20.8731 21.8176 20.8731 21.8176 20.8731 21.8176C20.8731 21.8176 20.8731 21.8176 20.8731 21.8176L20.8731 21.8176L20.8731 21.8176C20.8731 21.8176 20.8731 21.8176 20.8731 21.8176C20.8731 21.8176 20.8731 21.8176 20.8731 21.8176L20.8731 21.8176L20.8731 21.8176C20.8731 21.8176 20.8731 21.8176 20.8731 21.8176C20.8731 21.8176 20.8731 21.8176 20.8731 21.8176C20.8731 21.8176 20.8731 21.8176 20.8731 21.8176L20.8731 21.8176C20.8731 21.8176 20.8731 21.8176 20.8731 21.8176C20.8731 21.8176 20.8731 21.8176 20.8731 21.8176C20.8731 21.8176 20.8731 21.8176 20.8731 21.8176L20.8731 21.8176L20.8731 21.8176C20.8731 21.8176 20.8731 21.8176 20.8731 21.8176C20.8731 21.8176 20.8731 21.8176 20.8731 21.8176C20.8731 21.8176 20.8731 21.8176 20.8731 21.8176L20.8731 21.8176C20.8731 21.8176 20.8731 21.8176 20.8731 21.8176C20.8731 21.8176 20.8731 21.8176 20.8731 21.8176C20.8731 21.8176 20.8731 21.8176 20.8731 21.8176L20.8731 21.8176L20.8731 21.8176C20.8731 21.8176 20.8731 21.8176 20.8731 21.8176C20.8731 21.8176 20.8731 21.8176 20.8731 21.8176C20.8731 21.8176 20.8731 21.8176 20.8731 21.8176L20.8731 21.8176C20.8731 21.8176 20.8731 21.8176 20.8731 21.8176C20.8731 21.8176 20.8731 21.8176 20.8731 21.8176L19.8731 20.0856C19.8731 20.0856 19.8731 20.0856 19.8731 20.0856C19.8731 20.0856 19.8731 20.0856 19.8731 20.0856L19.8731 20.0856C19.8731 20.0856 19.8731 20.0856 19.8731 20.0856C19.8731 20.0856 19.8731 20.0856 19.8731 20.0856C19.8731 20.0856 19.8731 20.0856 19.8731 20.0856L19.8731 20.0856L19.8731 20.0856C19.8731 20.0856 19.8731 20.0856 19.8731 20.0856C19.8731 20.0856 19.8731 20.0856 19.8731 20.0856C19.8731 20.0856 19.8731 20.0856 19.8731 20.0856L19.8731 20.0856C19.8731 20.0856 19.8731 20.0856 19.8731 20.0856C19.8731 20.0856 19.8731 20.0856 19.8731 20.0856C19.8731 20.0856 19.8731 20.0856 19.8731 20.0856L19.8731 20.0856L19.8731 20.0856C19.8731 20.0856 19.8731 20.0856 19.8731 20.0856C19.8731 20.0856 19.8731 20.0856 19.8731 20.0856C19.8731 20.0856 19.8731 20.0856 19.8731 20.0856L19.8731 20.0856C19.8731 20.0856 19.8731 20.0856 19.8731 20.0856C19.8731 20.0856 19.8731 20.0856 19.8731 20.0856C19.8731 20.0856 19.8731 20.0856 19.8731 20.0856L19.8731 20.0856L19.8731 20.0856C19.8731 20.0856 19.8731 20.0856 19.8731 20.0856C19.8731 20.0856 19.8731 20.0856 19.8731 20.0856L19.8731 20.0856L19.8731 20.0856C19.8731 20.0856 19.8731 20.0856 19.8731 20.0856C19.8731 20.0856 19.8731 20.0856 19.8731 20.0856C19.8731 20.0856 19.8731 20.0856 19.8731 20.0856L19.8731 20.0856C19.8731 20.0856 19.8731 20.0856 19.8731 20.0856C19.8731 20.0856 19.8731 20.0856 19.8731 20.0856C19.8731 20.0856 19.8731 20.0856 19.8731 20.0856L19.8731 20.0856C19.8731 20.0856 19.8731 20.0856 19.8731 20.0856C19.8731 20.0856 19.8731 20.0856 19.8731 20.0856C19.8731 20.0856 19.8731 20.0856 19.8731 20.0856L19.8731 20.0856C19.8731 20.0856 19.8731 20.0856 19.8731 20.0856C19.8731 20.0856 19.8731 20.0856 19.8731 20.0856C19.8731 20.0856 19.8731 20.0856 19.8731 20.0856L19.8731 20.0856C19.8731 20.0856 19.8731 20.0856 19.8731 20.0856C19.8731 20.0856 19.8731 20.0856 19.8731 20.0856C19.8731 20.0856 19.8731 20.0856 19.8731 20.0856L19.8731 20.0856L19.8731 20.0856C19.8731 20.0856 19.8731 20.0856 19.8731 20.0856C19.8731 20.0856 19.8731 20.0856 19.8731 20.0856L19.8731 20.0856L19.8731 20.0856C19.8731 20.0856 19.8731 20.0856 19.8731 20.0856C19.8731 20.0856 19.8731 20.0856 19.8731 20.0856L19.8731 20.0856L19.8731 20.0856C19.8731 20.0856 19.8731 20.0856 19.8731 20.0856C19.8731 20.0856 19.8731 20.0856 19.8731 20.0856L19.8731 20.0856L19.8731 20.0856C19.8731 20.0856 19.8731 20.0856 19.8731 20.0856C19.8731 20.0856 19.8731 20.0856 19.8731 20.0856L19.8731 20.0856L19.8731 20.0856C19.8731 20.0856 19.8731 20.0856 19.8731 20.0856C19.8731 20.0856 19.8731 20.0856 19.8731 20.0856L19.8731 20.0856L19.8731 20.0856C19.8731 20.0856 19.8731 20.0856 19.8731 20.0856C19.8731 20.0856 19.8731 20.0856 19.8731 20.0856L19.8731 20.0856L19.8731 20.0856C19.8731 20.0856 19.8731 20.0856 19.8731 20.0856C19.8731 20.0856 19.8731 20.0856 19.8731 20.0856L19.8731 20.0856L19.8731 20.0856C19.8731 20.0856 19.8731 20.0856 19.8731 20.0856C19.8731 20.0856 19.8731 20.0856 19.8731 20.0856L19.8731 20.0856L19.8731 20.0856C19.8731 20.0856 19.8731 20.0856 19.8731 20.0856C19.8731 20.0856 19.8731 20.0856 19.8731 20.0856L19.8731 20.0856L19.8731 20.0856C19.8731 20.0856 19.8731 20.0856 19.8731 20.0856C19.8731 20.0856 19.8731 20.0856 19.8731 20.0856C19.8731 20.0856 19.8731 20.0856 19.8731 20.0856L19.8731 20.0856C19.873 20.0856 19.873 20.0856 19.873 20.0856C19.873 20.0856 19.873 20.0856 19.873 20.0856C19.873 20.0856 19.873 20.0856 19.873 20.0856L19.873 20.0856C19.873 20.0856 19.873 20.0856 19.873 20.0856C19.873 20.0856 19.873 20.0856 19.873 20.0856C19.873 20.0856 19.873 20.0856 19.873 20.0856L19.873 20.0856C19.873 20.0856 19.873 20.0856 19.873 20.0856C19.873 20.0856 19.873 20.0856 19.873 20.0856C19.873 20.0856 19.873 20.0856 19.873 20.0856L19.873 20.0856C19.873 20.0856 19.873 20.0856 19.873 20.0856C19.873 20.0856 19.873 20.0856 19.873 20.0856C19.873 20.0856 19.873 20.0856 19.873 20.0856L19.873 20.0856L19.873 20.0856C19.873 20.0856 19.873 20.0856 19.873 20.0856C19.873 20.0856 19.873 20.0856 19.873 20.0856L19.873 20.0856L19.873 20.0856C19.873 20.0856 19.873 20.0856 19.873 20.0856C19.873 20.0856 19.873 20.0856 19.873 20.0856C19.873 20.0856 19.873 20.0856 19.873 20.0856L19.873 20.0856C19.873 20.0856 19.873 20.0856 19.873 20.0856C19.873 20.0856 19.873 20.0856 19.873 20.0856C19.873 20.0856 19.873 20.0856 19.873 20.0856L19.873 20.0856L19.873 20.0856C19.873 20.0856 19.873 20.0856 19.873 20.0856C19.873 20.0856 19.873 20.0856 19.873 20.0856C19.873 20.0856 19.873 20.0856 19.873 20.0856L19.873 20.0856C19.873 20.0856 19.873 20.0856 19.873 20.0856C19.873 20.0856 19.873 20.0856 19.873 20.0856C19.873 20.0856 19.873 20.0856 19.873 20.0856L19.873 20.0856L19.873 20.0856C19.873 20.0856 19.873 20.0856 19.873 20.0856C19.873 20.0856 19.873 20.0856 19.873 20.0856C19.873 20.0856 19.873 20.0856 19.873 20.0856L19.873 20.0856C19.873 20.0856 19.873 20.0856 19.873 20.0856C19.873 20.0856 19.873 20.0856 19.873 20.0856L20.873 21.8177ZM20.8731 21.8176C21.389 21.5198 21.7736 21.2993 22.1108 21.1526C22.4434 21.008 22.6313 20.9812 22.7478 20.99C22.9019 21.0017 23.3163 21.1125 24.0901 22.4527L25.8221 21.4527C25.0167 20.0576 24.1409 19.0898 22.8989 18.9957C22.3174 18.9516 21.7808 19.1152 21.3131 19.3186C20.85 19.52 20.3585 19.8053 19.8731 20.0856L20.8731 21.8176ZM24.0901 22.4527C24.4132 23.0124 24.4909 23.4221 24.4776 23.7155C24.4646 24.0043 24.3595 24.2721 24.1558 24.5455C23.7058 25.1492 22.9048 25.6294 22.0303 26.1343L23.0303 27.8663C23.8149 27.4134 25.0163 26.7375 25.7593 25.7407C26.152 25.2138 26.4411 24.5702 26.4756 23.8058C26.5099 23.046 26.2886 22.2607 25.8221 21.4527L24.0901 22.4527ZM22.0303 26.1343C22.0269 26.1363 22.0234 26.1383 22.02 26.1402L23.0126 27.8765C23.0185 27.8731 23.0244 27.8697 23.0303 27.8663L22.0303 26.1343ZM8.33861 20.6055C10.1235 23.6971 12.3081 26.3074 14.7859 27.7615C17.323 29.2505 20.1647 29.5138 23.0147 27.8753L22.0179 26.1414C19.8666 27.3782 17.7953 27.2086 15.7982 26.0366C13.7418 24.8298 11.7712 22.551 10.0707 19.6055L8.33861 20.6055ZM9.38924 4.25588C6.54091 5.90357 5.34522 8.49657 5.36496 11.4396C5.38425 14.3137 6.5528 17.5124 8.33861 20.6055L10.0707 19.6055C8.36923 16.6585 7.38092 13.8112 7.36492 11.4262C7.34938 9.11021 8.23997 7.23124 10.3907 5.98709L9.38924 4.25588ZM9.39559 4.25221L9.38915 4.25594L10.3908 5.98703L10.3972 5.9833L9.39559 4.25221ZM16.3467 5.04079C15.8802 4.2328 15.3107 3.64849 14.6356 3.29834C13.9563 2.94602 13.2544 2.87453 12.6018 2.95119C11.367 3.09622 10.1809 3.7988 9.39642 4.25173L10.3964 5.98378C11.2708 5.47894 12.0873 5.02537 12.8351 4.93753C13.1737 4.89776 13.4581 4.94065 13.7147 5.07374C13.9755 5.209 14.2915 5.48112 14.6146 6.04079L16.3467 5.04079Z" fill="black"/>
</svg>
