<svg width="32" height="32" viewBox="0 0 32 32" fill="none" xmlns="http://www.w3.org/2000/svg">
<path fill-rule="evenodd" clip-rule="evenodd" d="M26 16C26 21.5228 21.5228 26 16 26C10.4772 26 6 21.5228 6 16C6 10.4772 10.4772 6 16 6C21.5228 6 26 10.4772 26 16ZM28 16C28 22.6274 22.6274 28 16 28C9.37258 28 4 22.6274 4 16C4 9.37258 9.37258 4 16 4C22.6274 4 28 9.37258 28 16ZM10.6065 15C10.9395 12.3258 13.2205 10.2563 15.9849 10.2563C17.5497 10.2563 18.9584 10.9182 19.9491 11.9801C20.3259 12.3839 20.9587 12.4059 21.3625 12.0291C21.7663 11.6524 21.7883 11.0196 21.4115 10.6158C20.0584 9.16535 18.127 8.25635 15.9849 8.25635C12.1149 8.25635 8.93683 11.219 8.59506 15H8.27695C7.73876 15 7.44976 15.6326 7.80209 16.0394L9.02515 17.4517C9.27565 17.7409 9.72436 17.7409 9.97486 17.4517L11.1979 16.0394C11.5502 15.6326 11.2613 15 10.7231 15H10.6065ZM21.6106 17C21.2776 19.6742 18.9966 21.7437 16.2322 21.7437C14.675 21.7437 13.2725 21.0883 12.2826 20.0356C11.9043 19.6333 11.2714 19.6138 10.8691 19.9921C10.4667 20.3705 10.4473 21.0033 10.8256 21.4057C12.1777 22.8436 14.1006 23.7437 16.2322 23.7437C20.1022 23.7437 23.2802 20.781 23.622 17H23.723C24.2612 17 24.5502 16.3674 24.1979 15.9606L22.9749 14.5483C22.7244 14.2591 22.2756 14.2591 22.0251 14.5483L20.8021 15.9606C20.4498 16.3674 20.7387 17 21.2769 17H21.6106Z" fill="black"/>
</svg>
