<svg width="32" height="32" viewBox="0 0 32 32" fill="none" xmlns="http://www.w3.org/2000/svg">
<path fill-rule="evenodd" clip-rule="evenodd" d="M14.5501 2.64306C14.1712 2.30628 13.6003 2.30628 13.2214 2.64306L7.22139 7.9764C6.80861 8.34331 6.77143 8.97539 7.13834 9.38817C7.50526 9.80095 8.13733 9.83813 8.55012 9.47121L12.8049 5.68921L12.8049 16.6096C12.8049 17.1619 13.2526 17.6096 13.8049 17.6096C14.3572 17.6096 14.8049 17.1619 14.8049 16.6096V5.54543L19.2214 9.47121C19.6342 9.83813 20.2662 9.80095 20.6332 9.38817C21.0001 8.97539 20.9629 8.34331 20.5501 7.9764L14.5501 2.64306Z" fill="black"/>
<path fill-rule="evenodd" clip-rule="evenodd" d="M19.4499 29.3569C19.8288 29.6937 20.3997 29.6937 20.7786 29.3569L26.7786 24.0236C27.1914 23.6567 27.2286 23.0246 26.8617 22.6118C26.4947 22.199 25.8627 22.1619 25.4499 22.5288L21.1951 26.3108L21.1951 15.3904C21.1951 14.8381 20.7474 14.3904 20.1951 14.3904C19.6428 14.3904 19.1951 14.8381 19.1951 15.3904L19.1951 26.4546L14.7786 22.5288C14.3658 22.1619 13.7338 22.199 13.3668 22.6118C12.9999 23.0246 13.0371 23.6567 13.4499 24.0236L19.4499 29.3569Z" fill="black"/>
</svg>
