<svg width="19" height="23" viewBox="0 0 19 23" fill="none" xmlns="http://www.w3.org/2000/svg">
<path d="M8.31442 6.07826L7.88629 5.33671L7.14474 5.76484L7.57287 6.50639L8.31442 6.07826ZM8.31544 6.08002L8.72192 6.83365L9.4977 6.41522L9.05699 5.65188L8.31544 6.08002ZM13.7224 15.4451L14.4639 15.017L14.0232 14.2537L13.273 14.7163L13.7224 15.4451ZM13.7234 15.4469L12.9819 15.8751L13.41 16.6166L14.1516 16.1885L13.7234 15.4469ZM15.559 20.6329L15.1338 19.8897L15.1322 19.8906L15.559 20.6329ZM4.74712 1.89207L5.17588 2.63326L5.17613 2.63311L4.74712 1.89207ZM4.75264 1.88888L4.3245 1.14733L4.32362 1.14783L4.75264 1.88888ZM8.74261 6.81978C9.14364 6.58824 9.98644 6.11998 10.4842 5.30283C10.7475 4.87072 10.9132 4.34747 10.8904 3.73571C10.8679 3.13343 10.665 2.49711 10.2758 1.82297L8.79269 2.67924C9.0796 3.17619 9.16943 3.54192 9.17902 3.79946C9.18826 4.04753 9.12526 4.24187 9.02168 4.41189C8.78586 4.79901 8.34265 5.07323 7.88634 5.33667L8.74261 6.81978ZM8.74255 6.81981L8.74261 6.81978L7.88634 5.33667L7.88629 5.33671L8.74255 6.81981ZM9.05699 5.65188L9.05597 5.65012L7.57287 6.50639L7.57389 6.50815L9.05699 5.65188ZM8.62011 6.89049C8.65389 6.87098 8.68784 6.85204 8.72192 6.83365L7.90895 5.32638C7.86032 5.35261 7.81195 5.37961 7.76384 5.40738L8.62011 6.89049ZM8.33116 12.3144C7.5855 11.0228 7.12509 9.95889 7.10744 9.08148C7.09917 8.67045 7.18918 8.30772 7.40009 7.96958C7.61587 7.62364 7.98886 7.25494 8.62011 6.89049L7.76384 5.40738C6.95599 5.8738 6.34742 6.42134 5.94704 7.06325C5.5418 7.71295 5.38104 8.40967 5.39525 9.11593C5.42255 10.4731 6.10005 11.8751 6.84805 13.1706L8.33116 12.3144ZM13.1728 14.7761C12.5416 15.1405 12.0358 15.2792 11.6283 15.2931C11.23 15.3067 10.8709 15.2032 10.519 14.9906C9.76802 14.5366 9.07681 13.6059 8.33116 12.3144L6.84805 13.1706C7.59605 14.4662 8.47143 15.7539 9.63312 16.4561C10.2377 16.8216 10.9214 17.0307 11.6867 17.0046C12.4428 16.9788 13.2213 16.7256 14.0291 16.2592L13.1728 14.7761ZM13.273 14.7163C13.24 14.7366 13.2066 14.7565 13.1728 14.7761L14.0291 16.2592C14.0772 16.2314 14.1248 16.203 14.1718 16.174L13.273 14.7163ZM14.465 15.0188L14.4639 15.017L12.9808 15.8733L12.9819 15.8751L14.465 15.0188ZM14.1516 16.1885L14.1516 16.1885C14.1516 16.1885 14.1516 16.1885 14.1516 16.1885C14.1516 16.1885 14.1516 16.1885 14.1516 16.1885L14.1516 16.1885C14.1516 16.1885 14.1516 16.1885 14.1516 16.1885L14.1516 16.1885C14.1516 16.1885 14.1516 16.1885 14.1516 16.1885L14.1516 16.1885C14.1516 16.1885 14.1516 16.1885 14.1516 16.1885C14.1516 16.1885 14.1516 16.1885 14.1516 16.1885C14.1516 16.1885 14.1516 16.1885 14.1516 16.1885C14.1516 16.1885 14.1516 16.1885 14.1516 16.1885L14.1516 16.1885C14.1516 16.1885 14.1516 16.1885 14.1516 16.1885L14.1516 16.1885C14.1516 16.1885 14.1516 16.1885 14.1516 16.1885C14.1516 16.1885 14.1516 16.1885 14.1516 16.1885C14.1516 16.1885 14.1516 16.1885 14.1516 16.1885C14.1516 16.1885 14.1516 16.1885 14.1516 16.1885L14.1516 16.1885C14.1516 16.1885 14.1516 16.1885 14.1516 16.1885L14.1516 16.1885C14.1516 16.1885 14.1516 16.1885 14.1516 16.1885C14.1516 16.1885 14.1516 16.1885 14.1516 16.1885C14.1516 16.1885 14.1516 16.1885 14.1516 16.1885C14.1516 16.1885 14.1516 16.1885 14.1516 16.1885L14.1516 16.1885C14.1516 16.1885 14.1516 16.1885 14.1516 16.1885L14.1516 16.1885C14.1516 16.1885 14.1516 16.1885 14.1516 16.1885L14.1516 16.1885C14.1516 16.1885 14.1516 16.1885 14.1516 16.1885C14.1516 16.1885 14.1516 16.1885 14.1516 16.1885L14.1516 16.1885C14.1516 16.1885 14.1516 16.1885 14.1516 16.1885L14.1516 16.1885C14.1516 16.1885 14.1516 16.1885 14.1516 16.1885L14.1516 16.1885C14.1516 16.1885 14.1516 16.1885 14.1516 16.1885C14.1516 16.1885 14.1516 16.1885 14.1516 16.1885L14.1516 16.1885C14.1516 16.1885 14.1516 16.1885 14.1516 16.1885L14.1516 16.1885C14.1516 16.1885 14.1516 16.1885 14.1516 16.1885L14.1516 16.1885C14.1516 16.1885 14.1516 16.1885 14.1516 16.1885C14.1516 16.1885 14.1516 16.1885 14.1516 16.1885L14.1516 16.1885C14.1516 16.1885 14.1516 16.1885 14.1516 16.1885L14.1516 16.1885C14.1516 16.1885 14.1516 16.1885 14.1516 16.1885C14.1516 16.1885 14.1516 16.1885 14.1516 16.1885C14.1516 16.1885 14.1516 16.1885 14.1516 16.1885C14.1516 16.1885 14.1516 16.1885 14.1516 16.1885L14.1516 16.1885C14.1516 16.1885 14.1516 16.1885 14.1516 16.1885L14.1516 16.1885C14.1516 16.1885 14.1516 16.1885 14.1516 16.1885C14.1516 16.1885 14.1516 16.1885 14.1516 16.1885C14.1516 16.1885 14.1516 16.1885 14.1516 16.1885C14.1516 16.1885 14.1516 16.1885 14.1516 16.1885L14.1516 16.1885C14.1516 16.1885 14.1516 16.1885 14.1516 16.1885L14.1516 16.1885C14.1516 16.1885 14.1516 16.1885 14.1516 16.1885C14.1516 16.1885 14.1516 16.1885 14.1516 16.1885C14.1516 16.1885 14.1516 16.1885 14.1516 16.1885C14.1516 16.1885 14.1516 16.1885 14.1516 16.1885L14.1516 16.1885C14.1516 16.1885 14.1516 16.1885 14.1516 16.1885L14.1516 16.1885C14.1516 16.1885 14.1516 16.1885 14.1516 16.1885C14.1516 16.1885 14.1516 16.1885 14.1516 16.1885L14.1516 16.1885C14.1516 16.1885 14.1516 16.1885 14.1516 16.1885L14.1516 16.1885C14.1516 16.1885 14.1516 16.1885 14.1516 16.1885C14.1516 16.1885 14.1516 16.1885 14.1516 16.1885C14.1516 16.1885 14.1516 16.1885 14.1516 16.1885C14.1516 16.1885 14.1516 16.1885 14.1516 16.1885L14.1516 16.1885C14.1516 16.1885 14.1516 16.1885 14.1516 16.1885L14.1516 16.1885C14.1516 16.1885 14.1516 16.1885 14.1516 16.1885C14.1516 16.1885 14.1516 16.1885 14.1516 16.1885C14.1516 16.1885 14.1516 16.1885 14.1516 16.1885C14.1516 16.1885 14.1516 16.1885 14.1516 16.1885L14.1516 16.1885C14.1516 16.1885 14.1516 16.1885 14.1516 16.1885L14.1516 16.1885C14.1516 16.1885 14.1516 16.1885 14.1516 16.1885C14.1516 16.1885 14.1516 16.1885 14.1516 16.1885L14.1516 16.1885C14.1516 16.1885 14.1516 16.1885 14.1516 16.1885L14.1516 16.1885C14.1516 16.1885 14.1516 16.1885 14.1516 16.1885L14.1516 16.1885C14.1516 16.1885 14.1516 16.1885 14.1516 16.1885C14.1516 16.1885 14.1516 16.1885 14.1516 16.1885L14.1516 16.1885C14.1516 16.1885 14.1516 16.1885 14.1516 16.1885L14.1516 16.1885C14.1516 16.1885 14.1516 16.1885 14.1516 16.1885C14.1516 16.1885 14.1516 16.1885 14.1516 16.1885C14.1516 16.1885 14.1516 16.1885 14.1516 16.1885C14.1516 16.1885 14.1516 16.1885 14.1516 16.1885L14.1516 16.1885C14.1516 16.1885 14.1516 16.1885 14.1516 16.1885L14.1516 16.1885C14.1516 16.1885 14.1516 16.1885 14.1516 16.1885C14.1516 16.1885 14.1516 16.1885 14.1516 16.1885L14.1516 16.1885C14.1516 16.1885 14.1516 16.1885 14.1516 16.1885L14.1516 16.1885C14.1516 16.1885 14.1516 16.1885 14.1516 16.1885C14.1516 16.1885 14.1516 16.1885 14.1516 16.1885C14.1516 16.1885 14.1516 16.1885 14.1516 16.1885C14.1516 16.1885 14.1516 16.1885 14.1516 16.1885L14.1516 16.1885C14.1516 16.1885 14.1516 16.1885 14.1516 16.1885L14.1516 16.1885C14.1516 16.1885 14.1516 16.1885 14.1516 16.1885C14.1516 16.1885 14.1516 16.1885 14.1516 16.1885C14.1516 16.1885 14.1516 16.1885 14.1516 16.1885C14.1516 16.1885 14.1516 16.1885 14.1516 16.1885L14.1516 16.1885C14.1516 16.1885 14.1516 16.1885 14.1516 16.1885L14.1516 16.1885C14.1516 16.1885 14.1516 16.1885 14.1516 16.1885C14.1516 16.1885 14.1516 16.1885 14.1516 16.1885L14.1516 16.1885C14.1516 16.1885 14.1516 16.1885 14.1516 16.1885L14.1516 16.1885C14.1516 16.1885 14.1516 16.1885 14.1516 16.1885L14.1516 16.1885C14.1516 16.1885 14.1516 16.1885 14.1516 16.1885C14.1516 16.1885 14.1516 16.1885 14.1516 16.1885L14.1516 16.1885C14.1516 16.1885 14.1516 16.1885 14.1516 16.1885L14.1516 16.1885C14.1516 16.1885 14.1516 16.1885 14.1516 16.1885C14.1516 16.1885 14.1516 16.1885 14.1516 16.1885C14.1516 16.1885 14.1516 16.1885 14.1516 16.1885C14.1516 16.1885 14.1516 16.1885 14.1516 16.1885L14.1516 16.1885C14.1516 16.1885 14.1516 16.1885 14.1516 16.1885L14.1516 16.1885C14.1516 16.1885 14.1516 16.1885 14.1516 16.1885C14.1516 16.1885 14.1516 16.1885 14.1516 16.1885C14.1516 16.1885 14.1516 16.1885 14.1516 16.1885C14.1516 16.1885 14.1516 16.1885 14.1516 16.1885L14.1516 16.1885C14.1516 16.1885 14.1516 16.1885 14.1516 16.1885L14.1516 16.1885C14.1516 16.1885 14.1516 16.1885 14.1516 16.1885C14.1516 16.1885 14.1516 16.1885 14.1516 16.1885L14.1516 16.1885C14.1516 16.1885 14.1516 16.1885 14.1516 16.1885L14.1516 16.1885C14.1516 16.1885 14.1516 16.1885 14.1516 16.1885L14.1516 16.1885C14.1516 16.1885 14.1516 16.1885 14.1516 16.1885C14.1516 16.1885 14.1516 16.1885 14.1516 16.1885L14.1516 16.1885C14.1516 16.1885 14.1516 16.1885 14.1516 16.1885L14.1516 16.1885C14.1516 16.1885 14.1516 16.1885 14.1516 16.1885C14.1516 16.1885 14.1516 16.1885 14.1516 16.1885C14.1516 16.1885 14.1516 16.1885 14.1516 16.1885C14.1516 16.1885 14.1516 16.1885 14.1516 16.1885L14.1516 16.1885C14.1516 16.1885 14.1516 16.1885 14.1516 16.1885L14.1516 16.1885C14.1516 16.1885 14.1516 16.1885 14.1516 16.1884C14.1516 16.1884 14.1516 16.1884 14.1516 16.1884C14.1516 16.1884 14.1516 16.1884 14.1516 16.1884C14.1516 16.1884 14.1516 16.1884 14.1516 16.1884L14.1516 16.1884C14.1516 16.1884 14.1516 16.1884 14.1516 16.1884L14.1516 16.1884C14.1516 16.1884 14.1516 16.1884 14.1516 16.1884C14.1516 16.1884 14.1516 16.1884 14.1516 16.1884C14.1516 16.1884 14.1516 16.1884 14.1516 16.1884C14.1516 16.1884 14.1516 16.1884 14.1516 16.1884L14.1516 16.1884C14.1516 16.1884 14.1516 16.1884 14.1516 16.1884L14.1516 16.1884C14.1516 16.1884 14.1516 16.1884 14.1516 16.1884L14.1516 16.1884C14.1516 16.1884 14.1516 16.1884 14.1516 16.1884C14.1516 16.1884 14.1516 16.1884 14.1516 16.1884L14.1516 16.1884C14.1516 16.1884 14.1516 16.1884 14.1516 16.1884L14.1516 16.1884C14.1516 16.1884 14.1516 16.1884 14.1516 16.1884L14.1516 16.1884C14.1516 16.1884 14.1516 16.1884 14.1516 16.1884C14.1516 16.1884 14.1516 16.1884 14.1516 16.1884L14.1516 16.1884C14.1516 16.1884 14.1516 16.1884 14.1516 16.1884L14.1517 16.1884C14.1517 16.1884 14.1517 16.1884 14.1517 16.1884L14.1517 16.1884C14.1517 16.1884 14.1517 16.1884 14.1517 16.1884C14.1517 16.1884 14.1517 16.1884 14.1517 16.1884C14.1517 16.1884 14.1517 16.1884 14.1517 16.1884C14.1517 16.1884 14.1517 16.1884 14.1517 16.1884L14.1517 16.1884C14.1517 16.1884 14.1517 16.1884 14.1517 16.1884L14.1517 16.1884C14.1517 16.1884 14.1517 16.1884 14.1517 16.1884L13.2954 14.7053C13.2954 14.7053 13.2954 14.7053 13.2954 14.7053L13.2954 14.7053C13.2954 14.7053 13.2954 14.7053 13.2954 14.7053L13.2954 14.7053C13.2954 14.7053 13.2954 14.7053 13.2954 14.7053C13.2954 14.7053 13.2954 14.7053 13.2954 14.7053C13.2954 14.7053 13.2954 14.7053 13.2954 14.7053C13.2954 14.7053 13.2954 14.7053 13.2954 14.7053L13.2954 14.7053C13.2954 14.7053 13.2954 14.7053 13.2954 14.7053L13.2954 14.7053C13.2954 14.7053 13.2954 14.7053 13.2954 14.7053L13.2954 14.7053C13.2954 14.7053 13.2954 14.7053 13.2954 14.7053C13.2954 14.7053 13.2954 14.7053 13.2954 14.7053L13.2954 14.7053C13.2954 14.7053 13.2954 14.7053 13.2954 14.7053L13.2954 14.7053C13.2954 14.7053 13.2954 14.7053 13.2954 14.7053L13.2954 14.7053C13.2954 14.7053 13.2954 14.7053 13.2954 14.7053C13.2954 14.7053 13.2954 14.7053 13.2954 14.7053L13.2954 14.7053C13.2954 14.7053 13.2954 14.7053 13.2954 14.7053L13.2954 14.7053C13.2954 14.7053 13.2954 14.7053 13.2954 14.7053L13.2954 14.7053C13.2954 14.7053 13.2954 14.7053 13.2954 14.7053C13.2954 14.7053 13.2954 14.7053 13.2954 14.7053C13.2954 14.7053 13.2954 14.7053 13.2954 14.7053C13.2954 14.7053 13.2954 14.7053 13.2954 14.7053L13.2954 14.7053C13.2954 14.7053 13.2954 14.7053 13.2954 14.7053L13.2954 14.7053C13.2954 14.7053 13.2954 14.7053 13.2954 14.7053C13.2954 14.7053 13.2954 14.7053 13.2954 14.7053C13.2954 14.7053 13.2954 14.7053 13.2954 14.7053C13.2954 14.7053 13.2954 14.7053 13.2954 14.7053L13.2954 14.7053C13.2954 14.7053 13.2954 14.7053 13.2954 14.7053L13.2954 14.7053C13.2954 14.7053 13.2954 14.7053 13.2954 14.7053C13.2954 14.7053 13.2954 14.7053 13.2954 14.7053C13.2954 14.7053 13.2954 14.7053 13.2954 14.7053C13.2954 14.7053 13.2954 14.7053 13.2954 14.7053L13.2954 14.7054C13.2954 14.7054 13.2954 14.7054 13.2954 14.7054L13.2954 14.7054C13.2954 14.7054 13.2954 14.7054 13.2954 14.7054C13.2954 14.7054 13.2954 14.7054 13.2954 14.7054L13.2954 14.7054C13.2954 14.7054 13.2954 14.7054 13.2954 14.7054L13.2954 14.7054C13.2954 14.7054 13.2954 14.7054 13.2954 14.7054L13.2954 14.7054C13.2954 14.7054 13.2954 14.7054 13.2954 14.7054C13.2954 14.7054 13.2954 14.7054 13.2954 14.7054L13.2954 14.7054C13.2954 14.7054 13.2954 14.7054 13.2954 14.7054L13.2954 14.7054C13.2954 14.7054 13.2954 14.7054 13.2954 14.7054C13.2954 14.7054 13.2954 14.7054 13.2954 14.7054C13.2954 14.7054 13.2954 14.7054 13.2954 14.7054C13.2954 14.7054 13.2954 14.7054 13.2954 14.7054L13.2954 14.7054C13.2954 14.7054 13.2954 14.7054 13.2954 14.7054L13.2954 14.7054C13.2954 14.7054 13.2954 14.7054 13.2954 14.7054C13.2954 14.7054 13.2954 14.7054 13.2954 14.7054C13.2954 14.7054 13.2954 14.7054 13.2954 14.7054C13.2954 14.7054 13.2954 14.7054 13.2954 14.7054L13.2954 14.7054C13.2954 14.7054 13.2954 14.7054 13.2954 14.7054L13.2954 14.7054C13.2954 14.7054 13.2954 14.7054 13.2954 14.7054C13.2954 14.7054 13.2954 14.7054 13.2954 14.7054L13.2954 14.7054C13.2954 14.7054 13.2954 14.7054 13.2954 14.7054L13.2954 14.7054C13.2954 14.7054 13.2954 14.7054 13.2954 14.7054L13.2954 14.7054C13.2954 14.7054 13.2954 14.7054 13.2954 14.7054C13.2954 14.7054 13.2954 14.7054 13.2954 14.7054L13.2954 14.7054C13.2953 14.7054 13.2953 14.7054 13.2953 14.7054L13.2953 14.7054C13.2953 14.7054 13.2953 14.7054 13.2953 14.7054C13.2953 14.7054 13.2953 14.7054 13.2953 14.7054C13.2953 14.7054 13.2953 14.7054 13.2953 14.7054C13.2953 14.7054 13.2953 14.7054 13.2953 14.7054L13.2953 14.7054C13.2953 14.7054 13.2953 14.7054 13.2953 14.7054L13.2953 14.7054C13.2953 14.7054 13.2953 14.7054 13.2953 14.7054C13.2953 14.7054 13.2953 14.7054 13.2953 14.7054C13.2953 14.7054 13.2953 14.7054 13.2953 14.7054C13.2953 14.7054 13.2953 14.7054 13.2953 14.7054L13.2953 14.7054C13.2953 14.7054 13.2953 14.7054 13.2953 14.7054L13.2953 14.7054C13.2953 14.7054 13.2953 14.7054 13.2953 14.7054C13.2953 14.7054 13.2953 14.7054 13.2953 14.7054L13.2953 14.7054C13.2953 14.7054 13.2953 14.7054 13.2953 14.7054L13.2953 14.7054C13.2953 14.7054 13.2953 14.7054 13.2953 14.7054C13.2953 14.7054 13.2953 14.7054 13.2953 14.7054C13.2953 14.7054 13.2953 14.7054 13.2953 14.7054C13.2953 14.7054 13.2953 14.7054 13.2953 14.7054L13.2953 14.7054C13.2953 14.7054 13.2953 14.7054 13.2953 14.7054L13.2953 14.7054C13.2953 14.7054 13.2953 14.7054 13.2953 14.7054C13.2953 14.7054 13.2953 14.7054 13.2953 14.7054L13.2953 14.7054C13.2953 14.7054 13.2953 14.7054 13.2953 14.7054L13.2953 14.7054C13.2953 14.7054 13.2953 14.7054 13.2953 14.7054L13.2953 14.7054C13.2953 14.7054 13.2953 14.7054 13.2953 14.7054C13.2953 14.7054 13.2953 14.7054 13.2953 14.7054L13.2953 14.7054C13.2953 14.7054 13.2953 14.7054 13.2953 14.7054L13.2953 14.7054C13.2953 14.7054 13.2953 14.7054 13.2953 14.7054C13.2953 14.7054 13.2953 14.7054 13.2953 14.7054C13.2953 14.7054 13.2953 14.7054 13.2953 14.7054C13.2953 14.7054 13.2953 14.7054 13.2953 14.7054L13.2953 14.7054C13.2953 14.7054 13.2953 14.7054 13.2953 14.7054L13.2953 14.7054C13.2953 14.7054 13.2953 14.7054 13.2953 14.7054C13.2953 14.7054 13.2953 14.7054 13.2953 14.7054C13.2953 14.7054 13.2953 14.7054 13.2953 14.7054C13.2953 14.7054 13.2953 14.7054 13.2953 14.7054L13.2953 14.7054C13.2953 14.7054 13.2953 14.7054 13.2953 14.7054L13.2953 14.7054C13.2953 14.7054 13.2953 14.7054 13.2953 14.7054C13.2953 14.7054 13.2953 14.7054 13.2953 14.7054L13.2953 14.7054C13.2953 14.7054 13.2953 14.7054 13.2953 14.7054L13.2953 14.7054C13.2953 14.7054 13.2953 14.7054 13.2953 14.7054C13.2953 14.7054 13.2953 14.7054 13.2953 14.7054C13.2953 14.7054 13.2953 14.7054 13.2953 14.7054C13.2953 14.7054 13.2953 14.7054 13.2953 14.7054L13.2953 14.7054C13.2953 14.7054 13.2953 14.7054 13.2953 14.7054L13.2953 14.7054C13.2953 14.7054 13.2953 14.7054 13.2953 14.7054C13.2953 14.7054 13.2953 14.7054 13.2953 14.7054C13.2953 14.7054 13.2953 14.7054 13.2953 14.7054C13.2953 14.7054 13.2953 14.7054 13.2953 14.7054L13.2953 14.7054C13.2953 14.7054 13.2953 14.7054 13.2953 14.7054L13.2953 14.7054C13.2953 14.7054 13.2953 14.7054 13.2953 14.7054C13.2953 14.7054 13.2953 14.7054 13.2953 14.7054C13.2953 14.7054 13.2953 14.7054 13.2953 14.7054C13.2953 14.7054 13.2953 14.7054 13.2953 14.7054L13.2953 14.7054C13.2953 14.7054 13.2953 14.7054 13.2953 14.7054L13.2953 14.7054C13.2953 14.7054 13.2953 14.7054 13.2953 14.7054C13.2953 14.7054 13.2953 14.7054 13.2953 14.7054L13.2953 14.7054C13.2953 14.7054 13.2953 14.7054 13.2953 14.7054L13.2953 14.7054C13.2953 14.7054 13.2953 14.7054 13.2953 14.7054L13.2953 14.7054C13.2953 14.7054 13.2953 14.7054 13.2953 14.7054C13.2953 14.7054 13.2953 14.7054 13.2953 14.7054L13.2953 14.7054C13.2953 14.7054 13.2953 14.7054 13.2953 14.7054L13.2953 14.7054C13.2953 14.7054 13.2953 14.7054 13.2953 14.7054L13.2953 14.7054C13.2953 14.7054 13.2953 14.7054 13.2953 14.7054C13.2953 14.7054 13.2953 14.7054 13.2953 14.7054L13.2953 14.7054C13.2953 14.7054 13.2953 14.7054 13.2953 14.7054L13.2953 14.7054C13.2953 14.7054 13.2953 14.7054 13.2953 14.7054L13.2953 14.7054C13.2953 14.7054 13.2953 14.7054 13.2953 14.7054C13.2953 14.7054 13.2953 14.7054 13.2953 14.7054C13.2953 14.7054 13.2953 14.7054 13.2953 14.7054C13.2953 14.7054 13.2953 14.7054 13.2953 14.7054L13.2953 14.7054C13.2953 14.7054 13.2953 14.7054 13.2953 14.7054L13.2953 14.7054C13.2953 14.7054 13.2953 14.7054 13.2953 14.7054C13.2953 14.7054 13.2953 14.7054 13.2953 14.7054C13.2953 14.7054 13.2953 14.7054 13.2953 14.7054C13.2953 14.7054 13.2953 14.7054 13.2953 14.7054L13.2953 14.7054C13.2953 14.7054 13.2953 14.7054 13.2953 14.7054L13.2953 14.7054C13.2953 14.7054 13.2953 14.7054 13.2953 14.7054C13.2953 14.7054 13.2953 14.7054 13.2953 14.7054C13.2953 14.7054 13.2953 14.7054 13.2953 14.7054C13.2953 14.7054 13.2953 14.7054 13.2953 14.7054L13.2953 14.7054C13.2953 14.7054 13.2953 14.7054 13.2953 14.7054L13.2953 14.7054C13.2953 14.7054 13.2953 14.7054 13.2953 14.7054L13.2953 14.7054C13.2953 14.7054 13.2953 14.7054 13.2953 14.7054C13.2953 14.7054 13.2953 14.7054 13.2953 14.7054L13.2953 14.7054L14.1516 16.1885ZM14.1517 16.1884C14.5934 15.9334 14.9227 15.7446 15.2114 15.619C15.4962 15.4952 15.6571 15.4722 15.7569 15.4798C15.8888 15.4898 16.2437 15.5847 16.9062 16.7322L18.3893 15.876C17.6996 14.6814 16.9497 13.8527 15.8862 13.7721C15.3883 13.7344 14.9288 13.8744 14.5284 14.0486C14.1319 14.2211 13.711 14.4654 13.2954 14.7053L14.1517 16.1884ZM16.9062 16.7322C17.1829 17.2115 17.2494 17.5623 17.2381 17.8136C17.2269 18.0608 17.1369 18.2901 16.9625 18.5242C16.5772 19.0411 15.8913 19.4524 15.1425 19.8847L15.9988 21.3678C16.6706 20.9799 17.6994 20.4012 18.3356 19.5476C18.6718 19.0965 18.9193 18.5454 18.9489 17.8908C18.9783 17.2403 18.7888 16.5678 18.3893 15.876L16.9062 16.7322ZM15.1425 19.8847C15.1397 19.8863 15.1368 19.888 15.1338 19.8897L15.9843 21.3761C15.989 21.3734 15.9939 21.3706 15.9988 21.3678L15.1425 19.8847ZM3.41874 15.1506C4.94716 17.7979 6.81783 20.033 8.93956 21.2781C11.1121 22.5531 13.5455 22.7784 15.9859 21.3752L15.1322 19.8906C13.2901 20.9498 11.5164 20.8047 9.80632 19.8011C8.04546 18.7678 6.35802 16.8165 4.90184 14.2943L3.41874 15.1506ZM4.31836 1.15088C1.87942 2.56175 0.85558 4.78205 0.872489 7.30209C0.889001 9.76305 1.8896 12.502 3.41874 15.1506L4.90184 14.2943C3.44495 11.7709 2.59869 9.33278 2.58499 7.2906C2.57168 5.30749 3.33427 3.69858 5.17588 2.63326L4.31836 1.15088ZM4.32362 1.14783L4.3181 1.15103L5.17613 2.63311L5.18165 2.62992L4.32362 1.14783ZM10.2758 1.82297C9.87635 1.13112 9.38871 0.630789 8.81063 0.330963C8.22899 0.0292896 7.62798 -0.0319284 7.06914 0.0337116C6.01185 0.157897 4.99625 0.759492 4.3245 1.14733L5.18077 2.63043C5.92951 2.19814 6.62858 1.80977 7.26891 1.73456C7.55888 1.7005 7.80242 1.73722 8.02215 1.85119C8.24544 1.967 8.51601 2.20001 8.79269 2.67924L10.2758 1.82297Z" fill="white"/>
</svg>
